<svg xmlns="http://www.w3.org/2000/svg" width="45.14" height="39.67" viewBox="0 0 45.14 39.67">
  <g id="Group_3615" data-name="Group 3615" transform="translate(-66.6 -287)">
    <path id="svgviewer-output" d="M118.236,111.981h-3.243a.727.727,0,0,0-.567.267,14.619,14.619,0,0,1-1.034,1.131,16.334,16.334,0,1,1,0-23.091c.365.364.706.743,1.034,1.13a.735.735,0,0,0,.567.268h3.243a.367.367,0,0,0,.309-.567,19.835,19.835,0,1,0,0,21.431A.368.368,0,0,0,118.236,111.981Z" transform="translate(-15.378 205.001)"/>
    <path id="svgviewer-output-2" data-name="svgviewer-output" d="M127.3,102.728l-8.024-6.333a.453.453,0,0,0-.736.356v3.3H100.791a.455.455,0,0,0-.453.453v5.166a.454.454,0,0,0,.453.452h17.754v3.3a.454.454,0,0,0,.736.356l8.024-6.333a.453.453,0,0,0,0-.712Z" transform="translate(-15.738 203.705)"/>
  </g>
</svg>
