<svg id="baseline-mic_none-24px" xmlns="http://www.w3.org/2000/svg" width="30" height="30" viewBox="0 0 30 30">
  <path id="Path_675" data-name="Path 675" d="M13.75,17a3.734,3.734,0,0,0,3.738-3.75l.012-7.5a3.75,3.75,0,1,0-7.5,0v7.5A3.745,3.745,0,0,0,13.75,17ZM12.25,5.625a1.5,1.5,0,0,1,3,0l-.013,7.75a1.494,1.494,0,1,1-2.987,0Zm8.125,7.625a6.486,6.486,0,0,1-6.625,6.375A6.486,6.486,0,0,1,7.125,13.25H5a8.73,8.73,0,0,0,7.5,8.4v4.1H15v-4.1a8.71,8.71,0,0,0,7.5-8.4Z" transform="translate(1.25 0.5)" fill="#333"/>
  <path id="Path_676" data-name="Path 676" d="M0,0H30V30H0Z" fill="none"/>
</svg>
