<svg id="baseline-mic-24px" xmlns="http://www.w3.org/2000/svg" width="100" height="100" viewBox="0 0 100 100">
  <path id="Path_673" data-name="Path 673" d="M34.167,52A12.448,12.448,0,0,0,46.625,39.5l.042-25a12.5,12.5,0,1,0-25,0v25A12.483,12.483,0,0,0,34.167,52ZM56.25,39.5c0,12.5-10.583,21.25-22.083,21.25S12.083,52,12.083,39.5H5c0,14.208,11.333,25.958,25,28V81.167h8.333V67.5c13.667-2,25-13.75,25-28Z" transform="translate(15.833 12)" fill="#333"/>
  <path id="Path_674" data-name="Path 674" d="M0,0H100V100H0Z" fill="none"/>
</svg>
