<svg id="baseline-mic_none-24px" xmlns="http://www.w3.org/2000/svg" width="50" height="50" viewBox="0 0 50 50">
  <path id="Path_675" data-name="Path 675" d="M19.583,27a6.224,6.224,0,0,0,6.229-6.25l.021-12.5a6.25,6.25,0,0,0-12.5,0v12.5A6.242,6.242,0,0,0,19.583,27Zm-2.5-18.958a2.5,2.5,0,0,1,5,0l-.021,12.917a2.49,2.49,0,1,1-4.979,0V8.042ZM30.625,20.75A10.81,10.81,0,0,1,19.583,31.375,10.81,10.81,0,0,1,8.542,20.75H5c0,7.1,5.667,12.979,12.5,14v6.833h4.167V34.75c6.833-1,12.5-6.875,12.5-14Z" transform="translate(5.417 2.167)" fill="#333"/>
  <path id="Path_676" data-name="Path 676" d="M0,0H50V50H0Z" fill="none"/>
</svg>
