<svg xmlns="http://www.w3.org/2000/svg" width="151" height="46" viewBox="0 0 151 46">
  <g id="Group_3602" data-name="Group 3602" transform="translate(-152 -639)">
    <g id="Group_27" data-name="Group 27" transform="translate(-2 636)">
      <text id="Mad_Gabz" data-name="Mad     Gabz" transform="translate(154 41)" fill="#333" font-size="24" font-family="Noteworthy-Bold, Noteworthy" font-weight="700" letter-spacing="0.1em"><tspan x="0" y="0" xml:space="preserve">Mad     Gabz</tspan></text>
      <g id="baseline-mic-24px" transform="translate(212 18)">
        <path id="Path_673" data-name="Path 673" d="M13.75,17a3.734,3.734,0,0,0,3.738-3.75l.013-7.5a3.75,3.75,0,0,0-7.5,0v7.5A3.745,3.745,0,0,0,13.75,17Zm6.625-3.75a6.486,6.486,0,0,1-6.625,6.375A6.486,6.486,0,0,1,7.125,13.25H5a8.73,8.73,0,0,0,7.5,8.4v4.1H15v-4.1a8.71,8.71,0,0,0,7.5-8.4Z" transform="translate(1.25 0.5)" fill="#333"/>
        <path id="Path_674" data-name="Path 674" d="M0,0H30V30H0Z" fill="none"/>
      </g>
      <text id="_" data-name="“" transform="matrix(1, 0, 0, -1, 212, 9)" fill="#333" font-size="20" font-family="Noteworthy-Light, Noteworthy" font-weight="300"><tspan x="0" y="0">“</tspan></text>
      <text id="_2" data-name="“" transform="translate(241 9) rotate(180)" fill="#333" font-size="20" font-family="Noteworthy-Light, Noteworthy" font-weight="300"><tspan x="0" y="0">“</tspan></text>
    </g>
  </g>
</svg>
