<svg xmlns="http://www.w3.org/2000/svg" width="162.653" height="46.5" viewBox="0 0 162.653 46.5">
  <g id="Group_3624" data-name="Group 3624" transform="translate(-151.803 -1.5)">
    <path id="Path_685" data-name="Path 685" d="M9.771,0H7.356L4.616-9.782V-20h.2ZM8.8-6.312,12.2-20h.236v10.22l-2.471,8.2ZM1.3,0V-20.013H4.054V0ZM12.994,0V-20.013h2.751V0ZM28.038-12.747,25.814,0H22.389l4.245-20.013h2.718Zm1.9-7.266L34.181,0H30.665L29.8-4.481H27.2l.3-2.078h2.044l-.966-5.952Zm15,17.486h.1a7.183,7.183,0,0,0,1.359-.107,1.836,1.836,0,0,0,.854-.376,1.447,1.447,0,0,0,.444-.73,4.416,4.416,0,0,0,.129-1.168V-15.3a2.866,2.866,0,0,0-.157-1.011,1.5,1.5,0,0,0-.494-.674,2.183,2.183,0,0,0-.854-.376,5.561,5.561,0,0,0-1.224-.118h-.157v-2.538h.135a10.355,10.355,0,0,1,3.111.393,4.315,4.315,0,0,1,1.937,1.185,4.372,4.372,0,0,1,.988,1.988,12.609,12.609,0,0,1,.275,2.8v6.907a19.576,19.576,0,0,1-.1,2.01,7.546,7.546,0,0,1-.354,1.673,4.411,4.411,0,0,1-.708,1.32,3.767,3.767,0,0,1-1.151.955,5.85,5.85,0,0,1-1.7.584,12.212,12.212,0,0,1-2.342.2h-.1ZM40.824,0V-20.013h3.549V0Zm65.287-20.383a5.805,5.805,0,0,1,2.5.567,4.4,4.4,0,0,1,1.628,1.415,5.915,5.915,0,0,1,.887,2.094,11.842,11.842,0,0,1,.27,2.594v.955h-3.425v-1.123q0-.618-.051-1.252a4.6,4.6,0,0,0-.236-1.162,2.223,2.223,0,0,0-.562-.887,1.677,1.677,0,0,0-1.016-.427Zm-.056,17.991a1.662,1.662,0,0,0,.983-.365,2.2,2.2,0,0,0,.584-.781,3.587,3.587,0,0,0,.281-1,7.783,7.783,0,0,0,.073-1.044V-7.569h-1.449v-2.572h5V0h-2.347l-.517-1.516a3.433,3.433,0,0,1-1.089,1.151,4.393,4.393,0,0,1-1.516.646ZM105.5.359a1.037,1.037,0,0,1-.146.011h-.146A5.143,5.143,0,0,1,103.444.09a4.265,4.265,0,0,1-1.336-.769,4.677,4.677,0,0,1-.955-1.129,6.529,6.529,0,0,1-.623-1.365,8.338,8.338,0,0,1-.337-1.482,11.091,11.091,0,0,1-.1-1.466v-7.356a12.537,12.537,0,0,1,.264-2.634,6.056,6.056,0,0,1,.9-2.162,4.616,4.616,0,0,1,1.679-1.488,5.994,5.994,0,0,1,2.617-.612V-17.6a1.747,1.747,0,0,0-.955.382,2.277,2.277,0,0,0-.584.758,3.375,3.375,0,0,0-.292.977,7.2,7.2,0,0,0-.079,1.05V-5.5a7.3,7.3,0,0,0,.073,1.022,3.4,3.4,0,0,0,.275.955,2.088,2.088,0,0,0,.567.741,1.834,1.834,0,0,0,.949.382Zm18.144-13.106L121.424,0H118l4.245-20.013h2.718Zm1.9-7.266L129.791,0h-3.515l-.865-4.481h-2.605l.3-2.078h2.044l-.966-5.952Zm15,8.03h.573a1.833,1.833,0,0,0,.977-.236,1.676,1.676,0,0,0,.6-.64,2.911,2.911,0,0,0,.3-.943,7.345,7.345,0,0,0,.084-1.134,4.846,4.846,0,0,0-.163-1.4,1.77,1.77,0,0,0-.472-.8,1.555,1.555,0,0,0-.758-.371,5.308,5.308,0,0,0-1.033-.09h-.112v-2.415h.045a10.313,10.313,0,0,1,2.364.253,4.644,4.644,0,0,1,1.831.848,3.92,3.92,0,0,1,1.179,1.583,6.291,6.291,0,0,1,.421,2.459,4.063,4.063,0,0,1-.708,2.482,4.383,4.383,0,0,1-2.134,1.46,4.438,4.438,0,0,1,1.561.736,4.13,4.13,0,0,1,1.039,1.146,4.722,4.722,0,0,1,.573,1.454,7.827,7.827,0,0,1,.174,1.673,9.158,9.158,0,0,1-.32,2.549,4.658,4.658,0,0,1-1,1.853,4.225,4.225,0,0,1-1.735,1.134A7.447,7.447,0,0,1,141.309,0h-.764V-2.538h.427a3,3,0,0,0,1.28-.23A1.677,1.677,0,0,0,143-3.453a2.969,2.969,0,0,0,.348-1.129,12.63,12.63,0,0,0,.084-1.55,8,8,0,0,0-.112-1.381,3.271,3.271,0,0,0-.387-1.106,1.958,1.958,0,0,0-.752-.73,2.448,2.448,0,0,0-1.2-.264h-.438ZM136.434,0V-20.013h3.549V0Zm22.535-20.395a4.98,4.98,0,0,1,1.915.41,4.878,4.878,0,0,1,1.533,1.05,5.043,5.043,0,0,1,1.039,1.567,5.5,5.5,0,0,1,.432,1.948V-15l-3.6.562q0-.157.011-.326t.011-.348a5.949,5.949,0,0,0-.1-.786,3.6,3.6,0,0,0-.23-.752,2.055,2.055,0,0,0-.4-.606,1.315,1.315,0,0,0-.606-.359ZM158.554.382A5.058,5.058,0,0,1,156.341-.2a4.992,4.992,0,0,1-1.561-1.336,6.054,6.054,0,0,1-.96-1.853,9.1,9.1,0,0,1-.41-2.145l3.56-.719q.022.629.1,1.263a5.957,5.957,0,0,0,.247,1.168,2.975,2.975,0,0,0,.472.915,1.4,1.4,0,0,0,.769.505Zm-1.336-9.636-.809-.764q-.562-.494-1.095-1.022a7.469,7.469,0,0,1-.955-1.157,5.688,5.688,0,0,1-.674-1.4,5.546,5.546,0,0,1-.253-1.735,5.447,5.447,0,0,1,.359-2.027,4.5,4.5,0,0,1,1.016-1.555,4.792,4.792,0,0,1,1.572-1.028,6.3,6.3,0,0,1,2.027-.444v2.729a1.47,1.47,0,0,0-.651.208,1.611,1.611,0,0,0-.466.432,1.811,1.811,0,0,0-.275.6,2.735,2.735,0,0,0-.09.708,3.321,3.321,0,0,0,.129.943,3.5,3.5,0,0,0,.359.82,4.722,4.722,0,0,0,.539.724,7.924,7.924,0,0,0,.668.657l.427.4q.27.253.562.522Zm2.785-2,.416.371q.73.674,1.376,1.376a9.4,9.4,0,0,1,1.123,1.488,7.535,7.535,0,0,1,.758,1.7,6.754,6.754,0,0,1,.281,2,4.625,4.625,0,0,1-.382,1.909,4.477,4.477,0,0,1-1.039,1.466A4.839,4.839,0,0,1,161,.011a5.6,5.6,0,0,1-1.881.382v-2.74a1.5,1.5,0,0,0,.646-.168,1.246,1.246,0,0,0,.432-.393,1.645,1.645,0,0,0,.241-.567,3.158,3.158,0,0,0,.073-.7A3.64,3.64,0,0,0,160.3-5.4a5.52,5.52,0,0,0-.55-1.129,7.824,7.824,0,0,0-.781-1.028q-.438-.489-.9-.915l-.449-.416Z" transform="translate(150.5 41)" fill="#333"/>
    <g id="baseline-mic-24px" transform="translate(212 18)">
      <path id="Path_673" data-name="Path 673" d="M13.75,17a3.734,3.734,0,0,0,3.738-3.75l.013-7.5a3.75,3.75,0,0,0-7.5,0v7.5A3.745,3.745,0,0,0,13.75,17Zm6.625-3.75a6.486,6.486,0,0,1-6.625,6.375A6.486,6.486,0,0,1,7.125,13.25H5a8.73,8.73,0,0,0,7.5,8.4v4.1H15v-4.1a8.71,8.71,0,0,0,7.5-8.4Z" transform="translate(1.25 0.5)" fill="#333"/>
      <path id="Path_674" data-name="Path 674" d="M0,0H30V30H0Z" fill="none"/>
    </g>
    <text id="_" data-name="“" transform="translate(211 37)" fill="#333" font-size="20" font-family="OswaldStencil-Bold, Oswald Stencil" font-weight="700"><tspan x="0" y="0">“</tspan></text>
    <text id="_2" data-name="“" transform="translate(241.5 7.5) rotate(180)" fill="#333" font-size="20" font-family="OswaldStencil-Bold, Oswald Stencil" font-weight="700"><tspan x="0" y="0">“</tspan></text>
  </g>
</svg>
